mtllib interiorpod.mtl
o Default
v 0 -2.3981014656698774e-12 -1
v 2 -2.3981014656698774e-12 1.0797215566071827e-8
v 0 -2.3981014656698774e-12 1.0797215566071827e-8
v 2 -2.3981014656698774e-12 -1
v 1.75 0.25 -1
v 0.25 3.75 -1
v 1.75 3.75 -1
v 0.25 0.25 -1
v 1.75 0 -1
v 0.25 0.25 -1
v 1.75 0.25 -1
v 0.25 0 -1
v 1.75 3.75 -1
v 0.25 4 -1
v 1.75 4 -1
v 0.25 3.75 -1
v 0.25 0 -1
v -8.881784197001252e-16 4 -1
v 0.25 4 -1
v 0 -2.3981014656698774e-12 -1
v 2 -2.3981014656698774e-12 -1
v 1.75 4 -1
v 2 4 -1
v 1.75 0 -1
v 2 -2.3981014656698774e-12 1.0797215566071827e-8
v 2 4 -1
v 2 4 -5.797216484637602e-9
v 2 -2.3981014656698774e-12 -1
v -8.881784197001252e-16 4 2.220446049250313e-16
v 2 4 -1
v -8.881784197001252e-16 4 -1
v 2 4 -5.797216484637602e-9
v 0 -2.3981014656698774e-12 -1
v -8.881784197001252e-16 4 2.220446049250313e-16
v -8.881784197001252e-16 4 -1
v 0 -2.3981014656698774e-12 1.0797215566071827e-8
v 0 -2.3981014656698774e-12 1.0797215566071827e-8
v 2 4 -5.797216484637602e-9
v -8.881784197001252e-16 4 2.220446049250313e-16
v 2 -1.744382416291046e-12 -5.797216484637602e-9
vt 0.25 0
vt 0.75 0.1666666716337204
vt 0.25 0.1666666716337204
vt 0.25 0
vt 0.75 0
vt 0.75 0.1666666716337204
vt 0 0
vt 1 1
vt 0 1
vt 0 0
vt 1 0
vt 1 1
vt 0.25 1
vt 0 0.8333333134651184
vt 0.25 0.8333333134651184
vt 0.25 1
vt 0 1
vt 0 0.8333333134651184
vt 0.25 1
vt 0 0.8333333134651184
vt 0.25 0.8333333134651184
vt 0.25 1
vt 0 1
vt 0 0.8333333134651184
vt 0.25 1
vt 0 0.3333333432674408
vt 0.25 0.3333333432674408
vt 0.25 1
vt 0 1
vt 0 0.3333333432674408
vt 0.25 1
vt 0 0.3333333432674408
vt 0.25 0.3333333432674408
vt 0.25 1
vt 0 1
vt 0 0.3333333432674408
vt 0.75 0.1666666716337204
vt 1 0.8333333134651184
vt 0.75 0.8333333134651184
vt 0.75 0.1666666716337204
vt 1 0.1666666716337204
vt 1 0.8333333134651184
vt 0.25 0.8333333134651184
vt 0.75 1
vt 0.25 1
vt 0.25 0.8333333134651184
vt 0.75 0.8333333134651184
vt 0.75 1
vt 0 0.1666666716337204
vt 0.25 0.8333333134651184
vt 0 0.8333333134651184
vt 0 0.1666666716337204
vt 0.25 0.1666666716337204
vt 0.25 0.8333333134651184
vt 0.25 0.1666666716337204
vt 0.75 0.8333333134651184
vt 0.25 0.8333333134651184
vt 0.25 0.1666666716337204
vt 0.75 0.1666666716337204
vt 0.75 0.8333333134651184
vn 0 -1 0
vn 0 -1 0
vn 0 -1 0
vn 0 -1 0
vn 0 -1 0
vn 0 -1 0
vn 0 0 -1
vn 0 0 -1
vn 0 0 -1
vn 0 0 -1
vn 0 0 -1
vn 0 0 -1
vn 0 0 -1
vn 0 0 -1
vn 0 0 -1
vn 0 0 -1
vn 0 0 -1
vn 0 0 -1
vn 0 0 -1
vn 0 0 -1
vn 0 0 -1
vn 0 0 -1
vn 0 0 -1
vn 0 0 -1
vn 0 0 -1
vn 0 0 -1
vn 0 0 -1
vn 0 0 -1
vn 0 0 -1
vn 0 0 -1
vn 0 0 -1
vn 0 0 -1
vn 0 0 -1
vn 0 0 -1
vn 0 0 -1
vn 0 0 -1
vn 1 0 0
vn 1 0 0
vn 1 0 0
vn 1 0 0
vn 1 0 0
vn 1 0 0
vn 0 1 0
vn 0 1 0
vn 0 1 0
vn 0 1 0
vn 0 1 0
vn 0 1 0
vn -1 -2.220446049248982e-16 0
vn -1 -2.220446049248982e-16 0
vn -1 -2.220446049248982e-16 0
vn -1 -2.220446049248982e-16 0
vn -1 -2.220446049248982e-16 0
vn -1 -2.220446049248982e-16 0
vn 2.898608353341102e-9 2.6993038360051876e-9 1
vn 2.898608353341102e-9 2.6993038360051876e-9 1
vn 2.898608353341102e-9 2.6993038360051876e-9 1
vn 8.297216025354714e-9 0 1
vn 8.297216025354714e-9 0 1
vn 8.297216025354714e-9 0 1
g Object 1202
usemtl material1
f 1/1/1 2/2/2 3/3/3
f 1/4/4 4/5/5 2/6/6
usemtl material3
f 5/7/7 6/8/8 7/9/9
f 5/10/10 8/11/11 6/12/12
usemtl material2
f 9/13/13 10/14/14 11/15/15
f 9/16/16 12/17/17 10/18/18
f 13/19/19 14/20/20 15/21/21
f 13/22/22 16/23/23 14/24/24
f 17/25/25 18/26/26 19/27/27
f 17/28/28 20/29/29 18/30/30
f 21/31/31 22/32/32 23/33/33
f 21/34/34 24/35/35 22/36/36
usemtl material1
f 25/37/37 26/38/38 27/39/39
f 25/40/40 28/41/41 26/42/42
f 29/43/43 30/44/44 31/45/45
f 29/46/46 32/47/47 30/48/48
f 33/49/49 34/50/50 35/51/51
f 33/52/52 36/53/53 34/54/54
f 37/55/55 38/56/56 39/57/57
f 37/58/58 40/59/59 38/60/60
