<?xml version="1.0" standalone="no"?>
<!DOCTYPE svg PUBLIC "-//W3C//DTD SVG 20010904//EN"
 "http://www.w3.org/TR/2001/REC-SVG-20010904/DTD/svg10.dtd">
<svg version="1.0" xmlns="http://www.w3.org/2000/svg"
 width="1080.000000pt" height="1080.000000pt" viewBox="0 0 1080.000000 1080.000000"
 preserveAspectRatio="xMidYMid meet">

<g transform="translate(0.000000,1080.000000) scale(0.100000,-0.100000)"
fill="#000000" stroke="none">
<path d="M4640 7397 c-141 -40 -238 -173 -227 -313 6 -76 31 -133 91 -206 l47
-57 -50 -108 c-122 -270 -167 -508 -126 -681 20 -83 37 -115 98 -179 127 -134
403 -224 781 -253 239 -19 504 8 740 76 156 45 245 92 327 174 88 87 111 144
117 297 6 172 -32 327 -139 566 l-49 109 41 46 c94 105 124 241 76 345 -35 77
-86 129 -159 163 -53 24 -76 28 -148 29 -77 0 -92 -3 -152 -33 -37 -18 -78
-47 -93 -64 l-26 -30 -77 25 c-105 35 -186 47 -313 47 -114 0 -238 -19 -331
-52 l-58 -20 -26 31 c-14 17 -54 45 -90 62 -75 37 -178 48 -254 26z m224 -80
c32 -15 66 -41 86 -66 18 -22 39 -41 46 -41 7 0 53 13 103 30 192 63 415 63
604 -1 49 -16 94 -29 101 -29 7 0 27 18 45 40 99 124 312 127 418 7 94 -108
79 -237 -44 -368 -24 -25 -43 -50 -43 -55 0 -5 27 -68 60 -141 80 -176 129
-348 137 -478 16 -291 -122 -424 -536 -514 -319 -70 -717 -56 -1021 36 -146
44 -237 93 -305 164 -71 74 -90 135 -89 279 0 164 35 291 140 522 30 64 54
123 54 131 0 7 -23 37 -51 66 -90 94 -119 197 -79 289 61 141 225 197 374 129z"/>
<path d="M4672 7240 c-61 -14 -102 -70 -102 -140 0 -60 43 -130 80 -130 18 0
183 162 188 184 5 21 -45 73 -75 80 -16 4 -35 8 -43 10 -8 2 -30 0 -48 -4z"/>
<path d="M6041 7237 c-33 -13 -81 -59 -81 -78 0 -17 174 -189 191 -189 36 0
79 70 79 130 0 102 -96 171 -189 137z"/>
<path d="M4929 6559 c-15 -29 -5 -95 18 -121 26 -30 77 -49 112 -42 32 7 91
64 91 89 0 17 -8 22 -99 62 -87 39 -106 40 -122 12z"/>
<path d="M5740 6545 c-41 -19 -79 -41 -85 -49 -13 -21 21 -66 68 -89 31 -16
42 -17 72 -7 51 17 85 62 85 114 0 76 -26 82 -140 31z"/>
<path d="M5315 6441 c-12 -5 -26 -16 -33 -24 -19 -23 10 -73 53 -94 31 -15 35
-21 35 -54 l0 -38 -87 -3 -88 -3 0 -56 c0 -46 5 -63 29 -93 74 -98 199 -120
300 -54 58 38 113 161 86 193 -9 11 -35 15 -96 15 l-84 0 0 38 c0 34 4 40 35
55 19 9 41 30 50 48 16 30 16 33 -4 53 -18 17 -35 21 -99 23 -42 2 -86 -1 -97
-6z"/>
<path d="M5663 5060 c-82 -17 -159 -74 -195 -144 -30 -58 -36 -172 -13 -233
42 -108 134 -165 270 -166 44 -1 106 5 138 12 l58 13 -3 141 -3 142 -97 3 -98
3 0 -51 0 -50 40 0 40 0 0 -55 c0 -50 -2 -55 -25 -61 -42 -10 -113 5 -145 33
-44 37 -62 78 -62 143 0 145 104 205 283 164 23 -5 26 -2 36 41 10 45 10 47
-14 56 -37 14 -162 19 -210 9z"/>
<path d="M3106 5043 c-3 -10 -39 -129 -80 -265 -42 -136 -76 -250 -76 -253 0
-12 121 -5 125 8 2 6 11 38 20 70 l16 57 79 0 79 0 21 -70 21 -70 64 0 c36 0
65 1 65 3 0 1 -38 121 -83 267 l-82 265 -82 3 c-71 2 -82 1 -87 -15z m116
-191 c15 -53 28 -98 28 -99 0 -2 -27 -3 -61 -3 -45 0 -60 3 -57 13 3 6 15 54
28 105 13 51 26 90 28 87 3 -3 18 -49 34 -103z"/>
<path d="M4254 5011 c-47 -12 -54 -19 -54 -62 0 -35 -2 -39 -26 -39 -23 0 -25
-3 -22 -42 2 -36 7 -44 26 -46 21 -3 22 -8 23 -90 1 -121 16 -171 58 -199 34
-23 83 -29 129 -17 18 5 22 13 22 50 0 41 -2 44 -27 44 -52 0 -58 12 -61 114
l-4 95 44 3 c43 3 43 3 46 45 l3 42 -43 3 -43 3 -3 53 c-3 56 -5 58 -68 43z"/>
<path d="M3668 4904 c-15 -8 -34 -27 -42 -42 l-15 -27 -1 38 0 37 -52 0 -53 0
3 -195 3 -195 59 0 60 0 0 119 c0 140 9 159 78 168 l42 6 0 53 c0 52 -1 54
-27 54 -16 -1 -40 -7 -55 -16z"/>
<path d="M3927 4910 c-157 -47 -188 -286 -49 -368 40 -23 58 -27 124 -27 90 0
103 8 94 62 l-7 38 -59 -3 c-52 -3 -62 -1 -84 21 -47 47 -47 124 0 168 21 20
36 24 84 24 l59 -1 7 39 c4 28 2 42 -7 48 -17 11 -125 10 -162 -1z"/>
<path d="M4559 4892 c-69 -36 -99 -89 -99 -175 0 -125 79 -207 200 -207 145 0
242 137 196 277 -40 121 -176 169 -297 105z m158 -84 c26 -29 26 -157 -1 -187
-23 -26 -78 -28 -101 -4 -55 54 -44 182 18 208 36 15 59 10 84 -17z"/>
<path d="M5003 4900 c-73 -38 -94 -128 -40 -178 12 -11 48 -32 80 -46 42 -19
57 -31 57 -46 0 -39 -63 -45 -144 -14 -9 3 -17 -9 -24 -36 -12 -49 -3 -56 82
-66 109 -13 193 34 202 112 7 54 -21 95 -82 123 -74 33 -79 36 -82 59 -5 33
47 41 111 16 19 -7 45 62 29 78 -6 6 -41 13 -79 15 -55 3 -76 0 -110 -17z"/>
<path d="M6067 4905 c-49 -17 -48 -15 -35 -56 l10 -36 37 13 c66 24 141 11
141 -24 0 -14 -13 -20 -70 -29 -86 -13 -134 -46 -151 -103 -10 -32 -9 -47 2
-77 29 -76 115 -103 194 -63 47 24 45 24 45 5 0 -12 13 -15 56 -15 l56 0 -4
143 c-5 170 -17 205 -82 237 -50 24 -141 26 -199 5z m161 -228 c7 -58 -49
-102 -94 -72 -44 28 -23 81 36 95 47 11 54 8 58 -23z"/>
<path d="M6605 4905 c-16 -9 -35 -23 -41 -31 -10 -12 -13 -11 -18 11 -6 23
-11 25 -58 25 l-51 0 7 -77 c3 -42 6 -129 6 -195 l0 -118 55 0 55 0 0 123 c0
144 9 170 60 175 54 5 60 -12 60 -165 l0 -133 60 0 60 0 0 128 c0 148 9 172
65 172 24 0 38 -6 45 -19 5 -11 10 -78 10 -150 l0 -131 60 0 60 0 0 143 c0
118 -4 149 -19 184 -39 85 -143 99 -218 31 l-22 -20 -24 27 c-29 35 -105 45
-152 20z"/>
<path d="M7235 4906 c-98 -44 -144 -186 -96 -292 37 -81 135 -118 257 -97 36
6 68 13 70 15 2 2 1 21 -3 41 l-6 38 -66 -7 c-49 -4 -76 -2 -103 9 -36 15 -64
48 -51 61 3 3 62 6 131 6 l125 0 -6 65 c-9 114 -70 175 -174 175 -26 -1 -61
-7 -78 -14z m124 -92 c37 -47 29 -54 -54 -54 -41 0 -75 2 -75 5 0 14 31 64 42
68 33 14 67 6 87 -19z"/>
<path d="M7631 4903 c-70 -37 -95 -110 -57 -167 10 -16 44 -39 82 -56 49 -22
64 -34 64 -50 0 -34 -39 -45 -101 -27 -29 9 -54 15 -56 14 -1 -2 -5 -21 -9
-44 l-6 -40 52 -13 c140 -34 254 32 237 137 -8 47 -39 79 -101 102 -59 22 -76
42 -56 66 10 13 23 16 50 11 19 -3 44 -7 54 -8 25 -4 46 56 27 75 -20 20 -141
21 -180 0z"/>
</g>
</svg>
